<?xml version="1.0" encoding="UTF-8" standalone="no"?>
<!-- Created with Inkscape (http://www.inkscape.org/) -->

<svg
   width="43.272133mm"
   height="46.639355mm"
   viewBox="0 0 43.272133 46.639355"
   version="1.1"
   id="svg1"
   xml:space="preserve"
   xmlns="http://www.w3.org/2000/svg"
   xmlns:svg="http://www.w3.org/2000/svg"><defs
     id="defs1" /><g
     id="layer1"
     transform="translate(-83.42367,-127.70442)"><path
       style="fill:#000000"
       d="m 96.797889,165.25483 c 0,-0.84329 -0.585232,-0.50961 -0.782935,0.54424 -0.09729,0.51858 -0.19994,1.14806 -0.395408,1.22307 -0.195469,0.075 -0.490399,0.67251 -0.655401,1.32779 -0.165001,0.65528 -0.615735,1.68898 -1.00163,2.29711 -0.385895,0.60813 -4.831646,3.18112 -4.831646,3.18112 l -2.583583,0.51561 c -0.145539,-0.0301 -0.607357,-0.11593 -1.026263,-0.19064 -1.142114,-0.20371 -1.769877,-1.11874 -1.580409,-2.30361 l 1.217397,-6.49433 c 0.453291,-0.49751 1.151654,-3.23539 1.187956,-4.65728 l 0.03906,-1.52982 -0.776161,0.12232 c -0.426889,0.0673 -1.060088,0.38906 -1.407109,0.71507 -0.976772,0.91763 -1.045086,0.40378 -0.141544,-1.06466 0.449773,-0.73097 0.895955,-1.65967 0.991515,-2.06377 0.445173,-1.88252 2.501663,-5.58042 4.174024,-7.50557 0.453894,-0.5225 1.063387,-1.28899 1.354429,-1.70331 2.136729,-3.04179 5.782524,-6.86665 8.462798,-8.87845 1.627871,-1.22187 1.713941,-1.35835 4.407601,-6.98918 0.65868,-1.37691 1.76274,-2.08091 4.15622,-2.65019 1.54292,-0.36698 2.44608,-0.42112 4.36562,-0.26169 3.87318,0.32168 4.81355,0.29846 5.3318,-0.13165 0.26237,-0.21775 0.68222,-0.36115 0.93299,-0.31866 0.25077,0.0425 0.5264,-0.10636 0.61251,-0.33075 0.17334,-0.45173 1.10946,-0.55494 1.35976,-0.14992 0.0877,0.14194 0.54001,0.21376 1.00506,0.15962 1.03202,-0.12016 1.86313,0.61126 2.2378,1.96937 0.29567,1.07175 0.10121,1.76732 -0.69406,2.4826 -0.30822,0.27721 -0.56039,0.60463 -0.56039,0.7276 0,0.12297 0.74414,0.2252 1.65364,0.22719 1.78872,0.004 2.84427,0.20079 2.84427,0.53053 0,0.31486 -1.54918,0.78877 -2.57845,0.78877 -1.29101,0 -3.58584,0.7137 -4.23277,1.31641 -0.30122,0.28063 -0.6965,0.96119 -0.8784,1.51235 -0.1819,0.55116 -0.68106,1.57148 -1.10924,2.26736 -0.67348,1.09454 -0.75656,1.43404 -0.6158,2.51633 0.54872,4.21882 0.5048,5.14967 -0.36559,7.74977 -0.84002,2.50938 -2.37237,5.75835 -3.6633,7.76713 -0.38174,0.59402 -0.70115,1.13956 -0.70978,1.21232 -0.009,0.0728 -0.0907,0.42492 -0.33467,0.66146 -1.28293,1.24376 -2.5236,2.77652 -2.87814,2.9592 -0.27128,0.10322 -0.71239,0.46463 -0.98025,0.80313 -0.26785,0.33851 -0.6598,0.47341 -0.79375,0.57803 -1.24767,0.97449 0.34624,-0.13225 -2.68798,1.71237 -2.66072,1.61756 -2.15566,1.00072 -2.79583,1.25284 -0.22646,0.0892 -0.68663,0.14611 -1.02255,0.19857 -0.777,0.12135 0.0144,-0.24509 -1.070987,-0.54737 -1.898161,-0.52861 -1.756431,-0.62842 -2.134886,-0.64643 -1.960649,-0.0933 -1.045538,-0.35637 -1.045538,-0.902 m 0.275701,-0.15043 c 0.119351,0.0437 -0.457382,0.40021 -0.239101,0.21911 0.218281,-0.18116 1.021761,-0.82374 1.021761,-1.03977 v -4e-5 c 0,-0.24044 0.153931,-0.33372 0.396875,-0.24049 0.316788,0.12156 0.390558,-0.0729 0.365571,-0.96388 -0.02948,-1.05111 -0.04308,-1.0699 -0.233279,-0.32243 -0.111086,0.43657 -0.1217,0.44749 -0.244369,0.52917 -0.75462,0.50248 -1.318716,1.72629 -1.067458,1.81833"
       id="path1" /></g></svg>
